HIERARCHY
ROOT root
{
	OFFSET	0	13.1	24.9
	CHANNELS 6  Xposition Yposition Zposition Xrotation Yrotation Zrotation
	JOINT spine_1
	{
		OFFSET	0	9.99999	0
		CHANNELS 3  Xrotation Yrotation Zrotation
		JOINT spine_2
		{
			OFFSET	0	112	-10
			CHANNELS 3  Xrotation Yrotation Zrotation
			JOINT spine_3
			{
				OFFSET	0	206.5	19.3
				CHANNELS 3  Xrotation Yrotation Zrotation
				JOINT spine_4
				{
					OFFSET	0	110.4	14.6
					CHANNELS 3  Xrotation Yrotation Zrotation
					JOINT neck_1
					{
						OFFSET	0	71.8	-50.3
						CHANNELS 3  Xrotation Yrotation Zrotation
						JOINT neck_2
						{
							OFFSET	0	86.2	-25.8
							CHANNELS 3  Xrotation Yrotation Zrotation
							JOINT head_ee
							{
								OFFSET	0	179.8	-8.7
								CHANNELS 3  Xrotation Yrotation Zrotation
								End Site
								{
									OFFSET	1	0	0
								}
							}
						}
					}
					JOINT left_clavicle
					{
						OFFSET	-43.2	22.4	-70.8
						CHANNELS 3  Xrotation Yrotation Zrotation
						JOINT left_shoulder
						{
							OFFSET	-93.9	-5.79999	48.7
							CHANNELS 3  Xrotation Yrotation Zrotation
							JOINT left_elbow
							{
								OFFSET	-291.4	-30.8	15.2
								CHANNELS 3  Xrotation Yrotation Zrotation
								JOINT left_lowarm_twist
								{
									OFFSET	-110.7	-3.89999	13.6
									CHANNELS 3  Xrotation Yrotation Zrotation
									JOINT left_hand
									{
										OFFSET	-110.7	-3.89999	13.6
										CHANNELS 3  Xrotation Yrotation Zrotation
										JOINT left_ee
										{
											OFFSET	-80.8	-5.10001	12.1
											CHANNELS 3  Xrotation Yrotation Zrotation
											End Site
											{
												OFFSET	1	0	0
											}
										}
									}
								}
							}
						}
					}
					JOINT right_clavicle
					{
						OFFSET	43.2	22.4	-70.8
						CHANNELS 3  Xrotation Yrotation Zrotation
						JOINT right_shoulder
						{
							OFFSET	93.9	-5.79999	48.7
							CHANNELS 3  Xrotation Yrotation Zrotation
							JOINT right_elbow
							{
								OFFSET	291.4	-30.8	15.2
								CHANNELS 3  Xrotation Yrotation Zrotation
								JOINT right_lowarm_twist
								{
									OFFSET	110.7	-3.89999	13.6
									CHANNELS 3  Xrotation Yrotation Zrotation
									JOINT right_hand
									{
										OFFSET	110.7	-3.89999	13.6
										CHANNELS 3  Xrotation Yrotation Zrotation
										JOINT right_ee
										{
											OFFSET	80.8	-5.10001	12.1
											CHANNELS 3  Xrotation Yrotation Zrotation
											End Site
											{
												OFFSET	1	0	0
											}
										}
									}
								}
							}
						}
					}
				}
			}
		}
	}
	JOINT left_hip
	{
		OFFSET	-82.8	-127.5	0.300001
		CHANNELS 3  Xrotation Yrotation Zrotation
		JOINT left_knee
		{
			OFFSET	-28.2	-396.7	2.2
			CHANNELS 3  Xrotation Yrotation Zrotation
			JOINT left_ankle
			{
				OFFSET	-11.7	-411.3	35.4
				CHANNELS 3  Xrotation Yrotation Zrotation
				JOINT left_toes
				{
					OFFSET	0	-60	-88.6
					CHANNELS 3  Xrotation Yrotation Zrotation
					JOINT left_foot_ee
					{
						OFFSET	-22.5	-16.5	-42.2
						CHANNELS 3  Xrotation Yrotation Zrotation
						End Site
						{
							OFFSET	1	0	0
						}
					}
				}
			}
		}
	}
	JOINT right_hip
	{
		OFFSET	82.8	-127.5	0.300001
		CHANNELS 3  Xrotation Yrotation Zrotation
		JOINT right_knee
		{
			OFFSET	28.2	-396.7	2.2
			CHANNELS 3  Xrotation Yrotation Zrotation
			JOINT right_ankle
			{
				OFFSET	11.7	-411.3	35.4
				CHANNELS 3  Xrotation Yrotation Zrotation
				JOINT right_toes
				{
					OFFSET	0	-60	-88.6
					CHANNELS 3  Xrotation Yrotation Zrotation
					JOINT right_foot_ee
					{
						OFFSET	22.5	-16.5	-42.2
						CHANNELS 3  Xrotation Yrotation Zrotation
						End Site
						{
							OFFSET	1	0	0
						}
					}
				}
			}
		}
	}
}
MOTION
Frames: 10
Frame Time: 0.02
3476.27883113 740.664 -1519.10089363 11.1342839148 55.3064996252 -17.9738077313 -2.29311 1.26718 5.32622 -2.27781 0.926201 5.39578 -2.17096 -0.43547 5.45717 -2.21223 0.430534 5.45756 -25.0592 8.77996 3.73539 -25.504 15.3599 7.98232 -0.0 0.0 -0.0 -4.72178 24.01 -3.63722 -3.20003 19.4058 73.3054 1.23713 -31.5003 0.348924 -4.10409 -0.162559 0.498668 2.85031 28.2256 27.7824 -0.0 0.0 -0.0 12.859 27.2419 -25.2007 16.1857 36.3553 -65.5341 0.679673 18.6079 -0.11135 71.5597 2.9038 8.06429 -2.50077 -7.15606 13.4085 0.0 0.0 0.0 9.30251 43.5845 -3.90043 -27.453 0.133162 4.17075 20.7007 10.4051 -2.82197 -9.13188 0.0 0.0 -0.0 0.0 -0.0 2.71705 28.6662 4.46418 -34.2111 0.140128 -5.17123 32.4876 19.7151 4.59537 -6.04569 0.0 0.0 0.0 0.0 0.0 
3478.33709285 740.664 -1523.39765026 10.4785973428 52.8167351032 -17.1641626333 -2.29311 1.26718 5.32622 -2.27781 0.926201 5.39578 -2.17096 -0.43547 5.45717 -2.21223 0.430534 5.45756 -25.0592 8.77996 3.73539 -25.504 15.3599 7.98232 -0.0 0.0 -0.0 -4.72178 24.01 -3.63722 -3.20003 19.4058 73.3054 1.23713 -31.5003 0.348924 -4.10409 -0.162559 0.498668 2.85031 28.2256 27.7824 -0.0 0.0 -0.0 12.859 27.2419 -25.2007 16.1857 36.3553 -65.5341 0.679673 18.6079 -0.11135 71.5597 2.9038 8.06429 -2.50077 -7.15606 13.4085 0.0 0.0 0.0 9.30251 43.5845 -3.90043 -27.453 0.133162 4.17075 20.7007 10.4051 -2.82197 -9.13188 0.0 0.0 -0.0 0.0 -0.0 2.71705 28.6662 4.46418 -34.2111 0.140128 -5.17123 32.4876 19.7151 4.59537 -6.04569 0.0 0.0 0.0 0.0 0.0 
3479.84394623 740.664 -1526.26479681 10.0853440023 51.1212837507 -16.6649617716 -2.29311 1.26718 5.32622 -2.27781 0.926201 5.39578 -2.17096 -0.43547 5.45717 -2.21223 0.430534 5.45756 -25.0592 8.77996 3.73539 -25.504 15.3599 7.98232 -0.0 0.0 -0.0 -4.72178 24.01 -3.63722 -3.20003 19.4058 73.3054 1.23713 -31.5003 0.348924 -4.10409 -0.162559 0.498668 2.85031 28.2256 27.7824 -0.0 0.0 -0.0 12.859 27.2419 -25.2007 16.1857 36.3553 -65.5341 0.679673 18.6079 -0.11135 71.5597 2.9038 8.06429 -2.50077 -7.15606 13.4085 0.0 0.0 0.0 9.30251 43.5845 -3.90043 -27.453 0.133162 4.17075 20.7007 10.4051 -2.82197 -9.13188 0.0 0.0 -0.0 0.0 -0.0 2.71705 28.6662 4.46418 -34.2111 0.140128 -5.17123 32.4876 19.7151 4.59537 -6.04569 0.0 0.0 0.0 0.0 0.0 
3470.06295446 740.072 -1527.96940097 11.4672850832 52.4527785647 -18.2658202617 -2.32093 1.16459 5.27524 -2.30583 0.82704 5.33841 -2.20972 -0.521425 5.37676 -2.24988 0.333006 5.39166 -25.8552 8.90515 3.67789 -26.346 15.662 8.13046 -0.0 0.0 -0.0 -4.75252 23.8375 -3.72297 -4.86795 19.1603 74.1046 1.11165 -28.8399 0.285845 -4.60404 -0.184795 0.558595 2.8678 27.8837 27.8335 -0.0 0.0 -0.0 12.7067 27.1577 -24.8614 17.3161 36.4792 -65.6285 0.804829 21.7365 -0.154526 71.9613 2.94638 8.09332 -2.5996 -8.8357 13.2142 0.0 0.0 0.0 11.3935 42.6789 -5.83501 -28.245 0.107275 4.28953 19.1908 12.0181 -2.63922 -9.2056 0.0 0.0 -0.0 0.0 -0.0 1.66732 30.2528 4.66598 -36.0981 0.237373 -5.44433 31.9834 17.4466 4.45966 -6.89682 0.0 0.0 0.0 0.0 0.0 
3469.80613795 740.072 -1527.46297484 11.5396924288 52.7249042247 -18.3569791079 -2.32093 1.16459 5.27524 -2.30583 0.82704 5.33841 -2.20972 -0.521425 5.37676 -2.24988 0.333006 5.39166 -25.8552 8.90515 3.67789 -26.346 15.662 8.13046 -0.0 0.0 -0.0 -4.75252 23.8375 -3.72297 -4.86795 19.1603 74.1046 1.11165 -28.8399 0.285845 -4.60404 -0.184795 0.558595 2.8678 27.8837 27.8335 -0.0 0.0 -0.0 12.7067 27.1577 -24.8614 17.3161 36.4792 -65.6285 0.804829 21.7365 -0.154526 71.9613 2.94638 8.09332 -2.5996 -8.8357 13.2142 0.0 0.0 0.0 11.3935 42.6789 -5.83501 -28.245 0.107275 4.28953 19.1908 12.0181 -2.63922 -9.2056 0.0 0.0 -0.0 0.0 -0.0 1.66732 30.2528 4.66598 -36.0981 0.237373 -5.44433 31.9834 17.4466 4.45966 -6.89682 0.0 0.0 0.0 0.0 0.0 
3461.59279017 737.97 -1526.7026822 12.1008144171 53.1384246573 -19.057570452 -2.23343 1.14179 5.21002 -2.2187 0.808419 5.27188 -2.12612 -0.515243 5.30845 -2.16527 0.328371 5.32324 -27.2178 8.81835 4.28693 -27.7111 15.3202 8.87063 -0.0 0.0 -0.0 -4.80175 23.9816 -3.75423 -5.78164 19.2896 74.4163 1.03677 -27.1838 0.250673 -5.05579 -0.205336 0.612577 2.88876 28.2282 28.027 -0.0 0.0 -0.0 12.5615 27.1462 -24.5297 17.8578 36.5182 -65.5913 0.89599 23.9336 -0.18991 72.4197 2.99524 8.12608 -2.73454 -10.1069 13.4503 0.0 0.0 0.0 12.7282 42.095 -7.30392 -28.9089 0.0843071 4.38884 17.7964 13.4609 -2.46807 -9.83011 0.0 0.0 -0.0 0.0 -0.0 1.13567 29.0435 5.36097 -37.0198 0.288139 -5.57655 33.7638 15.3705 4.58148 -6.93753 0.0 0.0 0.0 0.0 0.0 
3448.73363974 739.279 -1528.14151759 12.8847967891 54.3690161863 -20.2053469303 -2.23 1.13133 5.14701 -2.21563 0.801972 5.20834 -2.12497 -0.505713 5.2453 -2.16319 0.32785 5.25937 -28.0377 8.66984 4.33886 -28.5344 15.0535 8.97041 -0.0 0.0 -0.0 -4.86798 24.3345 -3.75483 -6.56351 19.4633 74.5257 0.971241 -25.6929 0.221494 -5.75638 -0.238035 0.695976 2.79902 28.0875 27.4333 -0.0 0.0 -0.0 12.3447 27.741 -23.9592 18.3703 37.1872 -66.144 0.975806 25.798 -0.223477 72.533 3.00736 8.13412 -2.60078 -10.9614 12.129 0.0 0.0 0.0 14.6992 41.0053 -8.74154 -27.9155 0.118246 4.24015 17.8528 13.1581 -2.47393 -10.3254 0.0 0.0 -0.0 0.0 -0.0 0.16776 30.6944 5.80184 -39.0823 0.40942 -5.8694 33.7039 13.9607 4.53397 -7.27152 0.0 0.0 0.0 0.0 0.0 
3438.01712204 734.573 -1527.81408001 12.9324953787 53.8677515237 -20.6571597363 -2.3286 1.27244 5.1635 -2.31426 0.941761 5.23374 -2.20948 -0.38376 5.30374 -2.24842 0.457476 5.2979 -28.7773 9.19258 6.86649 -29.2225 15.2003 11.7447 -0.0 0.0 -0.0 -4.69216 24.1497 -3.56155 -8.349 18.8945 74.837 0.927403 -24.6741 0.202839 -6.40901 -0.269413 0.773306 2.77217 28.353 27.3113 -0.0 0.0 -0.0 12.006 27.1796 -23.2565 18.0573 37.5926 -65.9333 1.18304 30.371 -0.321114 72.6695 3.02198 8.14378 -2.72172 -12.5669 12.0784 0.0 0.0 0.0 16.2073 40.2776 -8.45669 -26.9404 0.149044 4.09367 15.9237 14.6144 -2.23048 -10.2734 0.0 0.0 -0.0 0.0 -0.0 -0.48567 31.4261 6.49022 -39.3643 0.42682 -5.9091 31.3478 13.1838 4.26555 -5.57801 0.0 0.0 0.0 0.0 0.0 
3427.18122607 733.774 -1525.75574595 13.3726585108 55.896764702 -21.6188795155 -2.17264 1.19753 5.09328 -2.15863 0.871448 5.15891 -2.06275 -0.420203 5.21495 -2.10044 0.407523 5.21595 -28.9964 9.25626 7.31647 -29.4283 15.1845 12.2396 -0.0 0.0 -0.0 -4.63383 23.8245 -3.56267 -9.50852 18.7313 74.7455 0.863477 -23.1582 0.176921 -5.88484 -0.244142 0.711225 2.80095 28.6715 27.5484 -0.0 0.0 -0.0 12.1858 27.6166 -23.6123 18.4533 37.2981 -65.8163 1.24549 31.6723 -0.353299 72.7548 3.03112 8.14979 -2.60727 -12.7489 11.2456 0.0 0.0 0.0 16.5075 39.396 -7.73809 -24.8195 0.207387 3.77343 10.1982 15.5733 -1.46174 -10.9062 0.0 0.0 -0.0 0.0 -0.0 -1.14176 33.8471 6.82903 -40.5451 0.501809 -6.07441 31.7665 13.1608 4.30978 -6.07204 0.0 0.0 0.0 0.0 0.0 
3411.60880796 724.869 -1524.32558848 13.4545757913 57.4884232271 -22.0612976225 -2.04953 1.20937 5.05181 -2.03577 0.885895 5.11829 -1.93992 -0.385017 5.17994 -1.97708 0.436765 5.17584 -29.1307 9.14564 8.34596 -29.4757 14.6323 13.1465 -0.0 0.0 -0.0 -4.71554 23.7588 -3.69177 -10.8291 18.5686 74.7061 0.801217 -21.648 0.15319 -5.56402 -0.228955 0.673117 2.91582 28.698 28.2783 -0.0 0.0 -0.0 12.206 27.7393 -23.6431 18.7704 37.9467 -65.9285 1.40232 34.7845 -0.43927 72.8359 3.03982 8.15549 -2.26635 -12.1093 9.38184 0.0 0.0 0.0 17.3117 38.3924 -8.39094 -22.8923 0.250088 3.48078 7.73321 16.3232 -1.11923 -11.8503 0.0 0.0 -0.0 0.0 -0.0 -1.74969 32.9643 7.31129 -41.6899 0.577762 -6.23321 32.7066 11.5907 4.36969 -6.07711 0.0 0.0 0.0 0.0 0.0 
